<?xml version="1.0" standalone="no"?>
<!DOCTYPE svg PUBLIC "-//W3C//DTD SVG 20010904//EN"
 "http://www.w3.org/TR/2001/REC-SVG-20010904/DTD/svg10.dtd">
<svg version="1.0" xmlns="http://www.w3.org/2000/svg"
 width="500.000000pt" height="500.000000pt" viewBox="0 0 500.000000 500.000000"
 preserveAspectRatio="xMidYMid meet">
<metadata>
Created by potrace 1.11, written by Peter Selinger 2001-2013
</metadata>
<g transform="translate(0.000000,500.000000) scale(0.100000,-0.100000)"
fill="#000000" stroke="none">
<path d="M4778 4115 c-2 -20 0 -38 4 -41 4 -3 8 6 8 20 0 13 5 26 11 28 7 2 6
8 -4 16 -13 11 -15 7 -19 -23z"/>
<path d="M2680 4074 c-19 -7 -47 -13 -63 -13 -15 -1 -35 -5 -45 -10 -9 -5 -42
-13 -72 -19 -44 -8 -60 -6 -87 7 -18 9 -33 21 -33 28 0 17 -98 8 -120 -12 -10
-9 -39 -18 -65 -20 -84 -5 -145 -47 -145 -98 0 -7 -15 -18 -33 -25 -18 -6 -60
-33 -92 -60 -33 -26 -76 -54 -95 -62 -48 -20 -169 -145 -170 -176 0 -6 -7 -18
-17 -25 -19 -17 -38 -60 -65 -149 -27 -87 -37 -141 -27 -134 12 7 12 -92 0
-114 -4 -9 -11 -32 -14 -49 -7 -38 9 -45 22 -10 5 13 16 29 25 36 9 7 16 20
16 27 0 8 5 23 10 34 6 11 15 29 20 40 6 11 10 29 10 41 0 11 6 30 12 42 12
21 13 20 18 -18 7 -46 5 -48 51 70 32 83 97 175 125 175 6 0 15 7 18 15 8 22
67 45 86 35 17 -9 50 10 50 29 0 6 5 11 11 11 5 0 8 -4 5 -8 -3 -5 1 -18 9
-29 21 -30 96 -39 130 -17 14 9 25 12 25 7 0 -5 32 -9 71 -9 60 1 73 -2 87
-19 10 -12 25 -24 35 -28 10 -4 17 -12 16 -19 -3 -27 2 -37 16 -32 10 4 15 0
15 -10 0 -9 11 -21 25 -26 15 -6 25 -17 25 -30 0 -14 7 -20 23 -21 21 -1 21
-1 -3 -9 l-25 -7 27 -8 c15 -4 31 -4 37 -1 5 4 12 3 15 -2 3 -5 19 -7 36 -4
19 3 30 0 30 -7 0 -7 14 -17 30 -22 17 -6 31 -16 31 -22 3 -24 -3 -52 -13 -64
-8 -10 -5 -13 9 -13 29 0 33 -8 17 -38 -8 -17 -10 -28 -3 -32 5 -4 9 -29 8
-57 -1 -27 1 -55 4 -60 4 -6 0 -14 -9 -17 -8 -3 -13 -10 -9 -16 7 -11 27 -8
65 7 29 12 35 10 24 -9 -24 -38 10 -84 42 -57 12 10 18 9 29 -2 25 -26 23 -99
-2 -100 -15 0 -15 -2 2 -9 13 -5 -22 -9 -96 -9 -64 -1 -143 -4 -175 -7 -55 -6
-60 -5 -69 17 -8 18 -19 25 -49 27 -37 3 -39 2 -25 -14 13 -16 9 -17 -61 -9
-41 5 -95 8 -120 8 -41 -1 -43 0 -25 14 19 15 19 15 -2 9 -15 -5 -25 -1 -32
11 -6 10 -11 13 -11 6 0 -7 -12 -1 -26 12 -15 14 -23 29 -18 36 5 9 -6 10 -42
5 -82 -11 -104 -17 -104 -27 0 -6 4 -8 9 -5 14 9 61 -12 60 -26 0 -10 -2 -10
-6 0 -3 9 -9 10 -18 2 -10 -8 -10 -17 1 -48 7 -20 13 -53 14 -72 0 -19 7 -44
16 -55 13 -18 14 -17 8 13 -5 24 -3 33 10 38 9 3 16 12 16 19 0 25 17 25 41 1
27 -26 70 -41 63 -21 -4 9 28 14 123 18 70 4 142 11 160 16 17 5 34 7 37 3 3
-3 7 -39 7 -81 1 -56 3 -68 9 -46 4 17 8 47 9 68 1 37 1 38 23 23 27 -19 97
-21 104 -3 7 20 222 -6 240 -30 23 -30 15 -104 -15 -133 -14 -13 -29 -24 -33
-23 -3 2 -11 -12 -17 -29 -6 -17 -18 -39 -27 -49 -8 -9 -14 -23 -12 -30 2 -8
-2 -13 -9 -12 -7 2 -10 -4 -7 -12 5 -11 2 -13 -10 -9 -9 3 -16 1 -16 -5 0 -22
-39 -53 -69 -55 -16 -1 -32 -4 -36 -7 -3 -4 -22 -3 -41 1 -20 5 -34 4 -34 -1
0 -6 -8 -6 -19 0 -20 11 -81 10 -81 -1 0 -9 -83 3 -95 13 -5 5 -16 9 -25 9
-24 0 -100 69 -100 91 0 14 8 19 28 20 15 1 -6 5 -47 9 -71 8 -152 32 -180 53
-17 14 -41 18 -41 6 0 -5 6 -9 13 -9 8 0 33 -14 56 -31 56 -40 55 -75 -4 -104
-37 -18 -72 -21 -165 -16 -26 2 -136 -13 -181 -24 -23 -6 -28 -3 -37 23 -14
39 -6 70 27 105 l26 29 -51 -32 c-32 -20 -76 -36 -118 -43 -36 -6 -66 -15 -66
-19 0 -4 14 -5 30 -3 17 3 43 7 59 10 39 6 47 -17 17 -52 -40 -49 -55 -89 -49
-134 6 -41 134 -307 154 -320 5 -3 9 -10 8 -15 -4 -22 2 -33 16 -28 8 4 15 2
15 -2 0 -5 14 -25 30 -44 17 -19 46 -60 66 -91 19 -32 42 -60 52 -65 33 -14
123 -14 128 0 3 8 20 14 37 14 18 0 50 3 72 6 22 4 49 8 60 9 26 3 85 38 86
52 1 5 1 14 0 19 -1 5 5 6 14 3 8 -4 15 -1 15 6 0 7 9 18 20 25 12 7 20 8 20
2 0 -5 -4 -10 -10 -10 -13 0 -13 -37 0 -45 6 -4 29 10 51 30 22 19 44 33 50
29 13 -8 -25 -72 -62 -103 -16 -13 -29 -32 -29 -42 0 -11 -4 -20 -10 -20 -5
-1 -16 -2 -22 -3 -7 0 -17 -11 -23 -24 -5 -12 -17 -25 -26 -27 -9 -3 -29 -17
-43 -30 -22 -20 -37 -25 -81 -25 -48 0 -56 -3 -74 -29 -24 -33 -79 -48 -112
-31 -11 7 -32 14 -45 16 -20 4 -23 1 -21 -18 1 -17 -9 -27 -48 -47 -28 -14
-61 -34 -75 -44 -13 -9 -34 -17 -46 -17 -32 0 -132 -47 -188 -88 -26 -19 -78
-46 -115 -59 -36 -13 -95 -37 -131 -52 -144 -63 -389 -123 -461 -114 -19 3
-55 -1 -80 -7 -66 -18 -115 -73 -263 -302 -75 -117 -191 -389 -240 -562 -12
-44 -27 -81 -34 -84 -7 -2 -10 2 -6 12 3 9 1 16 -6 16 -6 0 -9 -4 -6 -9 3 -5
-1 -14 -9 -21 -8 -7 -15 -18 -15 -25 0 -7 -6 -13 -13 -12 -33 1 -47 -4 -47
-18 0 -15 -12 -20 -23 -9 -9 10 4 34 19 34 8 0 14 5 14 10 0 6 -7 10 -15 10
-11 0 -13 8 -8 32 5 24 3 30 -8 26 -10 -4 -14 3 -15 25 -1 17 -7 33 -13 35 -9
3 -9 7 -1 17 8 10 5 24 -16 57 -32 52 -33 53 -39 46 -7 -7 16 -72 29 -80 8 -5
7 -8 -1 -8 -7 0 -16 -1 -20 -2 -9 -4 -16 30 -18 95 -1 31 -5 60 -8 64 -4 3 -7
-100 -7 -230 l0 -236 643 -1 644 0 12 42 c7 24 20 57 29 73 9 17 17 32 17 35
10 40 19 60 26 60 5 0 62 -39 126 -87 l118 -86 -72 76 c-40 43 -73 86 -73 96
0 40 33 190 62 281 39 123 101 268 148 350 21 36 43 89 49 118 6 30 16 62 21
73 14 25 55 45 111 52 54 7 131 36 124 46 -2 4 2 25 10 47 8 21 14 62 15 90 0
28 3 54 6 57 4 3 35 -22 69 -56 34 -34 87 -74 116 -89 30 -14 64 -35 77 -46
12 -11 45 -22 73 -26 28 -4 56 -11 62 -17 7 -6 28 -20 47 -32 34 -21 35 -21
10 -25 -21 -4 -18 -6 20 -18 52 -16 71 -18 51 -5 -8 5 -16 21 -18 35 -4 27 10
32 107 39 25 1 50 6 57 10 6 4 26 7 45 6 42 -1 126 7 158 16 14 4 36 9 50 11
65 9 106 17 115 24 6 4 20 4 32 -1 16 -6 24 -22 33 -64 7 -31 10 -66 7 -76 -4
-15 5 -25 44 -44 57 -29 66 -52 50 -122 -6 -27 -11 -64 -10 -83 3 -49 -19
-206 -37 -261 -7 -26 -14 -53 -14 -62 0 -8 -7 -18 -16 -21 -8 -3 -13 -10 -10
-15 3 -5 -31 -49 -77 -97 -155 -167 -188 -207 -213 -255 l-24 -49 1091 0 1092
0 -6 283 c-3 155 -7 337 -7 405 -1 67 -5 122 -9 122 -14 0 -34 197 -35 351 -1
156 -1 157 -24 155 -13 0 -20 -6 -17 -13 2 -7 1 -13 -4 -13 -9 0 -31 67 -31
94 0 9 -4 16 -9 16 -4 0 -7 19 -5 42 1 24 2 72 2 108 0 258 3 345 12 348 6 2
10 14 10 27 0 13 5 27 10 30 6 3 10 11 10 16 0 6 -4 7 -10 4 -5 -3 -10 1 -10
9 0 9 7 16 16 16 8 0 12 5 9 10 -4 6 -7 56 -7 112 0 56 -4 111 -10 121 -9 18
-21 105 -20 150 1 13 -4 17 -14 13 -10 -4 -13 -2 -8 6 4 7 9 37 11 68 1 30 4
91 7 135 15 254 18 445 9 445 -6 0 -14 12 -18 28 -4 15 -9 22 -12 15 -3 -8
-10 -7 -22 5 -10 9 -15 22 -11 27 15 21 17 92 3 139 -8 26 -12 54 -9 62 3 8 2
14 -3 14 -12 0 -10 34 3 42 6 4 18 8 25 8 11 0 12 -3 4 -11 -14 -14 7 -39 32
-39 15 0 16 12 12 103 -2 56 -7 128 -10 160 -4 37 -2 57 5 57 7 0 6 5 -2 15
-7 8 -8 15 -3 15 5 0 9 8 9 19 0 19 -17 18 -44 -2 -10 -8 -16 -7 -22 4 -7 9
-5 15 4 17 14 3 15 56 2 69 -13 14 -5 24 15 18 15 -5 19 -4 15 4 -4 6 -13 11
-21 11 -7 0 -17 9 -20 20 -4 11 -11 18 -16 15 -5 -4 -9 -1 -9 4 0 14 27 14 32
1 2 -6 2 20 2 57 -1 38 3 74 8 81 8 8 6 12 -6 12 -9 0 -16 5 -16 12 0 8 -4 8
-14 -2 -15 -17 -39 -320 -35 -466 1 -50 -1 -97 -5 -103 -4 -6 -2 -11 4 -11 8
0 10 -9 5 -27 -19 -76 -23 -357 -14 -923 2 -143 -1 -223 -10 -265 -12 -55 -24
-587 -21 -905 1 -52 2 -138 3 -190 0 -52 -2 -149 -6 -215 -4 -66 -9 -187 -12
-270 -3 -93 -10 -152 -16 -156 -7 -4 -9 -11 -5 -17 3 -6 0 -29 -8 -51 -7 -23
-10 -43 -6 -46 7 -5 3 -125 -5 -133 -1 -1 -24 57 -50 130 -58 160 -104 255
-146 303 -28 31 -36 35 -83 35 -40 0 -75 11 -160 50 -61 28 -115 50 -120 50
-6 1 -24 12 -40 25 -24 19 -30 32 -29 59 1 20 -3 36 -8 36 -5 0 -9 -9 -9 -19
0 -51 -50 -24 -150 79 -103 107 -204 180 -247 180 -10 0 -56 32 -103 71 -47
38 -93 76 -102 84 -10 8 -20 27 -24 42 -9 46 -27 75 -69 118 -60 60 -84 76
-115 77 -24 1 -29 6 -34 37 -17 105 4 368 31 378 8 3 19 1 26 -6 6 -6 31 -11
55 -11 34 0 50 6 66 23 30 33 46 71 35 88 -13 21 -11 55 5 68 10 9 20 0 47
-41 29 -45 39 -54 68 -56 32 -3 33 -2 28 25 -7 37 8 63 38 63 30 0 42 22 39
75 -1 22 3 46 8 52 9 11 6 46 -9 103 -8 30 -14 65 -14 80 1 8 1 41 0 72 0 47
4 59 20 67 29 16 31 14 31 -19 0 -35 24 -50 46 -28 8 8 18 38 23 66 4 29 11
55 14 58 10 10 37 -4 44 -23 10 -28 35 -53 53 -53 15 0 15 8 7 68 -5 37 -9 82
-9 101 0 39 -16 67 -71 126 -21 22 -45 52 -53 67 -8 15 -23 32 -34 38 -52 28
-77 148 -44 212 11 22 13 33 5 41 -6 6 -11 33 -11 60 0 26 -5 58 -12 70 -7 12
-13 40 -14 62 -5 95 -44 166 -109 196 -36 17 -95 84 -95 108 0 14 -78 87 -151
141 -41 31 -99 64 -129 73 -30 10 -77 29 -105 42 -77 36 -165 64 -218 70 -27
2 -52 6 -55 9 -4 2 -23 -2 -42 -10z m2170 -380 c0 -8 -5 -12 -10 -9 -6 4 -8
11 -5 16 9 14 15 11 15 -7z m2 -49 c4 -21 3 -23 -13 -14 -11 5 -16 16 -13 24
9 23 21 18 26 -10z m-7 -41 c11 -12 13 -20 6 -27 -6 -6 -11 -21 -11 -34 0 -14
-6 -23 -15 -23 -16 0 -20 12 -7 24 10 11 9 60 -3 68 -6 5 -6 8 2 8 6 0 19 -7
28 -16z m-17 -172 c-9 -2 -19 -11 -21 -20 -4 -16 -4 -16 -12 1 -4 9 -4 24 -1
32 5 13 9 14 28 3 19 -10 20 -13 6 -16z m-2548 -582 c0 -5 -7 -10 -15 -10 -8
0 -15 5 -15 10 0 6 7 10 15 10 8 0 15 -4 15 -10z m845 -240 c3 -5 1 -10 -4
-10 -6 0 -11 5 -11 10 0 6 2 10 4 10 3 0 8 -4 11 -10z m139 -99 c3 -5 -3 -11
-14 -14 -12 -3 -20 -14 -20 -25 0 -23 -36 -40 -52 -24 -6 6 3 17 26 32 20 12
36 26 36 31 0 12 17 12 24 0z m-990 -90 c9 -10 16 -22 15 -27 -3 -19 2 -32 21
-54 24 -27 26 -60 5 -60 -8 0 -15 -4 -15 -10 0 -5 -7 -10 -15 -10 -8 0 -12 -6
-9 -13 4 -11 -4 -12 -38 -7 -231 40 -246 41 -302 31 -31 -6 -69 -8 -85 -5 -38
8 -97 -12 -117 -39 l-16 -22 6 25 c4 14 9 41 12 60 10 63 13 68 34 42 l18 -22
19 23 c18 24 18 24 53 6 29 -15 31 -18 13 -19 -13 0 -23 -5 -23 -11 0 -8 19
-10 63 -5 47 5 66 11 79 28 12 16 20 19 30 12 17 -14 58 -16 58 -3 0 5 12 15
28 21 15 7 38 21 51 32 13 12 21 15 17 9 -11 -20 11 -15 26 5 11 17 31 29 49
31 3 1 14 -7 23 -18z m1044 -13 c-5 -16 -48 -24 -48 -9 0 8 17 16 43 20 5 0 7
-5 5 -11z m-88 -38 c12 0 12 -187 0 -210 -19 -35 -25 -22 -25 58 0 42 -6 91
-13 109 -15 35 -8 58 15 49 8 -3 18 -6 23 -6z m-1324 -185 c6 -16 47 -12 71 7
8 6 24 6 45 0 18 -6 59 -13 90 -17 44 -5 62 -12 76 -30 18 -22 20 -23 36 -7
13 13 20 14 34 5 13 -7 24 -8 36 -1 22 12 39 -2 34 -28 -2 -14 -11 -18 -29
-16 -14 2 -31 -4 -38 -12 -9 -11 -19 -12 -36 -6 -17 6 -27 5 -35 -6 -15 -17
-46 -19 -56 -3 -5 8 -10 6 -16 -5 -6 -10 -22 -16 -48 -16 -21 0 -42 -5 -46
-11 -4 -7 -24 -9 -50 -6 -24 2 -44 1 -44 -3 0 -15 60 -32 87 -25 16 4 43 8 61
10 18 1 35 5 38 8 4 3 19 4 34 1 15 -4 38 -1 50 6 14 7 26 8 32 2 5 -5 -8 -15
-37 -26 -47 -18 -57 -32 -28 -38 31 -6 -46 -55 -112 -73 -105 -27 -203 -16
-247 28 -16 16 -35 113 -25 123 8 8 49 -35 43 -45 -5 -8 15 -30 42 -46 10 -5
10 0 -2 22 -11 22 -12 33 -4 41 8 8 4 14 -15 21 -23 9 -27 16 -27 49 0 22 5
53 11 70 9 28 17 33 62 41 4 0 10 -6 13 -14z m464 -56 c0 -6 -4 -7 -10 -4 -5
3 -10 11 -10 16 0 6 5 7 10 4 6 -3 10 -11 10 -16z m29 -36 c-42 -53 -59 -68
-59 -51 0 9 5 20 10 23 6 4 8 11 5 16 -3 5 0 6 8 3 8 -3 20 2 27 11 17 21 26
19 9 -2z m811 -543 c0 -4 -6 -10 -13 -13 -7 -3 -13 3 -13 13 0 10 6 16 13 13
7 -3 13 -9 13 -13z m1686 -417 c-10 -10 -19 5 -10 18 6 11 8 11 12 0 2 -7 1
-15 -2 -18z m4 -45 c0 -23 -3 -29 -11 -21 -6 6 -8 20 -4 32 9 30 15 26 15 -11z"/>
<path d="M2123 2153 c-18 -6 -16 -23 1 -23 17 0 30 16 19 23 -5 2 -14 2 -20 0z"/>
<path d="M1928 2123 c7 -3 16 -2 19 1 4 3 -2 6 -13 5 -11 0 -14 -3 -6 -6z"/>
<path d="M4848 3878 c5 -5 16 -8 23 -6 8 3 3 7 -10 11 -17 4 -21 3 -13 -5z"/>
<path d="M2370 3134 c-36 -6 -94 -19 -130 -29 -36 -9 -94 -24 -130 -33 -67
-17 -100 -37 -100 -60 0 -11 16 -13 68 -11 37 1 76 -2 86 -6 13 -6 21 -4 24 3
2 6 22 17 45 23 23 6 56 17 72 25 69 32 151 52 196 49 58 -4 95 -27 120 -77
18 -36 37 -54 26 -24 -3 7 -1 18 5 24 8 8 7 13 -6 18 -10 4 -15 13 -11 24 4
12 -3 25 -21 39 -51 40 -147 54 -244 35z"/>
<path d="M1670 3062 c-35 -4 -80 -23 -80 -33 0 -8 30 -20 41 -16 4 1 16 -7 28
-17 23 -21 100 -32 155 -22 36 7 36 7 21 35 -8 16 -22 32 -32 36 -28 10 -105
21 -133 17z"/>
<path d="M2720 3025 c-8 -9 -8 -15 -2 -15 12 0 26 19 19 26 -2 2 -10 -2 -17
-11z"/>
<path d="M2486 2949 c9 -10 20 -16 24 -14 4 3 8 -1 7 -8 -1 -40 2 -42 63 -39
l59 4 -15 24 c-9 14 -30 26 -50 30 -19 3 -34 9 -34 13 0 4 -16 7 -36 8 -34 1
-35 0 -18 -18z"/>
<path d="M1776 2951 c-3 -5 1 -11 9 -15 8 -3 15 -10 15 -16 0 -6 -12 -3 -27 6
l-28 16 25 -20 c13 -11 27 -19 31 -17 3 3 19 -9 34 -25 42 -44 61 -40 58 11
-1 22 -7 47 -14 55 -13 15 -94 20 -103 5z"/>
<path d="M1668 2943 c6 -2 18 -2 25 0 6 3 1 5 -13 5 -14 0 -19 -2 -12 -5z"/>
<path d="M2346 2921 c-3 -5 6 -12 20 -15 29 -8 39 -3 29 13 -8 13 -42 14 -49
2z"/>
<path d="M1588 2878 c-9 -7 -20 -30 -23 -50 l-7 -36 75 -1 c41 0 79 -1 83 -2
22 -4 34 2 34 16 0 9 6 12 17 8 11 -4 12 -8 5 -11 -19 -6 -14 -22 8 -22 11 0
20 -3 20 -8 0 -22 -29 -142 -40 -162 -6 -12 -8 -20 -2 -16 5 3 15 20 22 38 20
53 44 98 53 98 14 0 25 44 15 63 -11 21 11 24 31 5 11 -10 13 -10 7 0 -4 6 -2
12 4 12 6 0 8 5 5 10 -4 7 -24 8 -50 4 -31 -4 -57 -1 -89 11 -25 10 -63 18
-85 19 -22 0 -37 4 -35 8 7 11 78 10 110 -2 39 -15 41 -5 3 14 -38 19 -138 21
-161 4z m142 -62 c0 -11 -19 -15 -25 -6 -3 5 1 10 9 10 9 0 16 -2 16 -4z m103
-56 c-3 -11 -9 -20 -14 -20 -10 0 -12 24 -2 33 13 13 21 7 16 -13z"/>
<path d="M1805 2850 c-3 -5 -1 -10 4 -10 6 0 11 5 11 10 0 6 -2 10 -4 10 -3 0
-8 -4 -11 -10z"/>
<path d="M1371 2824 c0 -11 3 -14 6 -6 3 7 2 16 -1 19 -3 4 -6 -2 -5 -13z"/>
<path d="M1358 2782 c-3 -12 -10 -22 -15 -21 -24 4 -34 -4 -13 -10 17 -5 27
-16 31 -36 6 -28 7 -28 8 8 1 24 5 36 11 32 6 -4 49 -4 96 0 114 10 97 29 -20
23 -72 -4 -86 -2 -89 11 -2 11 -5 9 -9 -7z"/>
<path d="M2427 2783 c-11 -10 -230 -21 -254 -12 -16 6 -23 5 -23 -4 0 -18 86
-47 135 -47 22 1 58 8 80 16 22 9 59 21 83 27 23 5 42 14 42 19 0 9 -54 11
-63 1z"/>
<path d="M2010 2729 c0 -5 5 -7 10 -4 6 3 10 8 10 11 0 2 -4 4 -10 4 -5 0 -10
-5 -10 -11z"/>
<path d="M1611 2715 c14 -14 145 -13 160 2 10 10 -7 12 -79 10 -61 -1 -88 -5
-81 -12z"/>
<path d="M2355 2560 c-30 -8 -30 -8 8 -9 20 0 37 4 37 9 0 11 -2 11 -45 0z"/>
<path d="M4910 1365 c0 -9 6 -12 15 -9 8 4 15 7 15 9 0 2 -7 5 -15 9 -9 3 -15
0 -15 -9z"/>
<path d="M4920 1340 c-8 -5 -11 -12 -7 -16 4 -4 13 -2 19 4 15 15 7 24 -12 12z"/>
<path d="M4010 985 c0 -15 4 -24 10 -20 6 3 10 12 10 20 0 8 -4 17 -10 20 -6
4 -10 -5 -10 -20z"/>
<path d="M3 637 c1 -37 4 -62 8 -56 4 8 13 2 24 -17 9 -16 14 -21 11 -12 -3 9
0 19 7 22 8 3 7 9 -5 19 -10 8 -18 19 -18 26 0 6 -4 11 -9 11 -6 0 -12 17 -14
38 -2 20 -4 7 -4 -31z"/>
<path d="M40 693 c0 -4 5 -15 10 -23 8 -13 10 -13 10 2 0 9 -4 20 -10 23 -5 3
-10 3 -10 -2z"/>
<path d="M31 654 c0 -11 3 -14 6 -6 3 7 2 16 -1 19 -3 4 -6 -2 -5 -13z"/>
<path d="M285 635 c0 -43 19 -40 23 3 2 21 -1 32 -10 32 -8 0 -13 -13 -13 -35z"/>
<path d="M12 499 c-8 -12 -9 -18 -4 -15 6 3 12 0 15 -6 2 -7 4 -1 4 15 0 15 0
27 -1 27 -1 0 -7 -9 -14 -21z"/>
</g>
</svg>
